<svg width="101" height="100" viewBox="0 0 101 100" fill="none" xmlns="http://www.w3.org/2000/svg">
<path d="M19.3242 16.9428V94.1744C19.3242 96.0369 20.834 97.5467 22.6965 97.5467H78.3047C80.1672 97.5467 81.6769 96.0369 81.6769 94.1744V16.9428C81.6769 15.0803 80.1672 13.5705 78.3047 13.5705H22.6965C20.834 13.5703 19.3242 15.0803 19.3242 16.9428Z" fill="white"/>
<path d="M68.8187 14.2752V16.041C68.8187 19.2758 66.1965 21.8982 62.9615 21.8982H38.0369C34.8021 21.8982 32.1797 19.276 32.1797 16.041V14.2752C32.1797 12.7365 33.427 11.4893 34.9656 11.4893H66.033C67.5715 11.4895 68.8187 12.7367 68.8187 14.2752Z" fill="#94C1FF"/>
<path d="M36.9714 38.6813L37.3042 40.6221C37.4531 41.4893 36.5425 42.1506 35.7638 41.741L34.0218 40.8248C33.7126 40.6621 33.3431 40.6621 33.0337 40.8246L31.288 41.7422C30.5093 42.1516 29.5992 41.4902 29.748 40.623L30.081 38.6814C30.14 38.3371 30.0259 37.9857 29.7757 37.7418L28.3626 36.3643C27.7328 35.7502 28.0804 34.6803 28.9509 34.5537L30.9023 34.2701C31.2478 34.2199 31.5466 34.0029 31.7013 33.6898L32.5751 31.9209C32.9648 31.132 34.0898 31.1324 34.4789 31.9215L35.3507 33.6893C35.5052 34.0027 35.8042 34.2199 36.1501 34.2703L38.1011 34.5539C38.9718 34.6805 39.3195 35.7504 38.6894 36.3645L37.2763 37.742C37.0265 37.9855 36.9124 38.3369 36.9714 38.6813ZM53.9449 38.6813L54.2777 40.6221C54.4265 41.4893 53.516 42.1506 52.7373 41.741L50.9953 40.8248C50.6861 40.6621 50.3165 40.6621 50.0072 40.8246L48.2615 41.7422C47.4828 42.1516 46.5726 41.4902 46.7214 40.623L47.0544 38.6814C47.1134 38.3371 46.9994 37.9857 46.7492 37.7418L45.3361 36.3643C44.7062 35.7502 45.0539 34.6803 45.9244 34.5537L47.8757 34.2701C48.2212 34.2199 48.5201 34.0029 48.6748 33.6898L49.5486 31.9209C49.9382 31.132 51.0632 31.1324 51.4523 31.9215L52.3242 33.6893C52.4787 34.0027 52.7777 34.2199 53.1236 34.2703L55.0746 34.5539C55.9453 34.6805 56.2929 35.7504 55.6628 36.3645L54.2498 37.742C53.9999 37.9855 53.8859 38.3369 53.9449 38.6813ZM70.9183 38.6813L71.2511 40.6221C71.3999 41.4893 70.4894 42.1506 69.7107 41.741L67.9687 40.8248C67.6595 40.6621 67.29 40.6621 66.9806 40.8246L65.2349 41.7422C64.4562 42.1516 63.546 41.4902 63.6949 40.623L64.0279 38.6814C64.0869 38.3371 63.9728 37.9857 63.7226 37.7418L62.3095 36.3643C61.6796 35.7502 62.0273 34.6803 62.8978 34.5537L64.8492 34.2701C65.1947 34.2199 65.4935 34.0029 65.6482 33.6898L66.522 31.9209C66.9117 31.132 68.0367 31.1324 68.4257 31.9215L69.2976 33.6893C69.4521 34.0027 69.7511 34.2199 70.097 34.2703L72.048 34.5539C72.9187 34.6805 73.2663 35.7504 72.6363 36.3645L71.2232 37.742C70.9734 37.9855 70.8593 38.3369 70.9183 38.6813ZM40.5474 55.4699V63.0377C40.5474 64.4014 39.4419 65.5068 38.0783 65.5068H30.5105C29.1468 65.5068 28.0414 64.4014 28.0414 63.0377V55.4699C28.0414 54.1063 29.1468 53.0008 30.5105 53.0008H38.0783C39.4419 53.0006 40.5474 54.1063 40.5474 55.4699ZM40.5474 76.2949V83.8627C40.5474 85.2264 39.4419 86.3318 38.0783 86.3318H30.5105C29.1468 86.3318 28.0414 85.2264 28.0414 83.8627V76.2949C28.0414 74.9313 29.1468 73.8258 30.5105 73.8258H38.0783C39.4419 73.8258 40.5474 74.9313 40.5474 76.2949Z" fill="#D7E9FF"/>
<path d="M48.9777 43.0996L50.5025 42.2975L52.0244 43.0988C53.9349 44.1012 56.1552 42.4758 55.7898 40.3631L55.4992 38.6668L56.7334 37.4625C58.273 35.9664 57.4302 33.3469 55.297 33.0357L53.591 32.7879L52.8287 31.243C51.8765 29.3129 49.1267 29.3135 48.175 31.2414L47.4111 32.7879L45.705 33.0357C43.573 33.3469 42.7287 35.9652 44.2671 37.4617L45.5029 38.6668L45.2123 40.3615C44.8461 42.4836 47.074 44.0998 48.9777 43.0996ZM48.097 35.7881C48.9404 35.666 49.6697 35.1365 50.0517 34.369L50.5011 33.4582L50.9519 34.3711C51.3308 35.1357 52.0619 35.6652 52.905 35.7881L53.9086 35.9342L53.1822 36.6426C52.5711 37.2379 52.291 38.0963 52.4334 38.9379C52.4349 38.9387 52.4349 38.9395 52.4349 38.9402L52.6056 39.9377L51.7084 39.4658C50.9535 39.0703 50.0517 39.0697 49.2939 39.4666L48.3966 39.9393L48.5689 38.9379C48.7113 38.0961 48.431 37.2379 47.8214 36.644L47.0935 35.934L48.097 35.7881Z" fill="#116FFF"/>
<path d="M78.3039 12.0365H69.7096C68.95 10.7945 67.5932 9.95605 66.0338 9.95605H55.7277C56.2352 9.06953 56.548 8.05683 56.548 6.96347C56.548 3.63086 53.8369 0.919724 50.5043 0.919724C47.1627 0.919724 44.4441 3.63086 44.4441 6.96347C44.4441 8.05703 44.758 9.06953 45.2668 9.95605H34.966C33.4066 9.95605 32.0498 10.7945 31.2902 12.0365H22.6959C19.9908 12.0365 17.7891 14.2375 17.7891 16.9426V94.1744C17.7891 96.8795 19.9908 99.0805 22.6959 99.0805H78.3037C81.0088 99.0805 83.2105 96.8795 83.2105 94.1744V16.9426C83.2107 14.2375 81.009 12.0365 78.3039 12.0365ZM50.5045 3.98711C52.1461 3.98711 53.4807 5.32246 53.4807 6.96328C53.4807 8.61308 52.1461 9.95586 50.5045 9.95586C48.8539 9.95586 47.5119 8.61308 47.5119 6.96328C47.5119 5.32246 48.8539 3.98711 50.5045 3.98711ZM33.7141 14.275C33.7141 13.5853 34.2758 13.0236 34.9662 13.0236H66.0338C66.7242 13.0236 67.2859 13.5853 67.2859 14.275V16.041C67.2859 18.4248 65.3463 20.3645 62.9617 20.3645H38.0383C35.6537 20.3645 33.7141 18.4248 33.7141 16.041V14.275ZM80.1432 94.1742C80.1432 95.1883 79.318 96.0127 78.3039 96.0127H22.6961C21.682 96.0127 20.8568 95.1881 20.8568 94.1742V16.9426C20.8568 15.9285 21.6822 15.1041 22.6961 15.1041H30.6465V16.041C30.6465 20.1166 33.9627 23.432 38.0383 23.432H62.9619C67.0375 23.432 70.3537 20.1166 70.3537 16.041V15.1041H78.3041C79.3182 15.1041 80.1434 15.9287 80.1434 16.9426L80.1432 94.1742Z" fill="#116FFF"/>
<path d="M28.5281 38.6668L28.2361 40.3647C27.873 42.4865 30.1013 44.0988 32.0031 43.0996L33.5279 42.2975L35.0498 43.0988C36.9603 44.1012 39.1806 42.4758 38.8152 40.3631L38.5246 38.6668L39.7587 37.4625C41.3015 35.9635 40.4504 33.3447 38.3209 33.0357L36.6164 32.7879L35.8541 31.243C34.9019 29.3129 32.1521 29.3135 31.2004 31.2414L30.4365 32.7879L28.7304 33.0357C26.5984 33.3469 25.7541 35.9652 27.2925 37.4617L28.5281 38.6668ZM31.1224 35.7881C31.9658 35.666 32.6951 35.1365 33.0771 34.3689L33.5265 33.4582L33.9744 34.3658C34.3519 35.1334 35.0828 35.6652 35.9304 35.7881L36.9339 35.9342L36.2076 36.6426C35.5964 37.2379 35.3164 38.0963 35.4587 38.9379C35.4603 38.9387 35.4603 38.9395 35.4603 38.9402L35.631 39.9377L34.7338 39.4658C33.9789 39.0703 33.0771 39.0697 32.3193 39.4666L31.422 39.9393L31.5943 38.9379C31.7367 38.0961 31.4564 37.2379 30.8468 36.6439L30.1189 35.934L31.1224 35.7881ZM62.4746 38.6668L62.1839 40.3615C61.8179 42.4834 64.0457 44.0998 65.9494 43.0996L67.4742 42.2975L68.9961 43.0988C70.8964 44.0977 73.1261 42.4873 72.7631 40.3623L72.4711 38.6668L73.7052 37.4625C75.2449 35.9664 74.4021 33.3469 72.2689 33.0357L70.5629 32.7879L69.8019 31.2451C68.8545 29.316 66.1005 29.3096 65.1466 31.2414L64.3828 32.7879L62.6783 33.0357C60.5504 33.3445 59.6972 35.9621 61.2388 37.4617L62.4746 38.6668ZM65.0687 35.7881C65.915 35.6652 66.6459 35.1344 67.0234 34.3689L67.4728 33.4582L67.9236 34.3711C68.3025 35.1357 69.0336 35.6652 69.8767 35.7881L70.8802 35.9342L70.1539 36.6426C69.5427 37.2379 69.2627 38.0963 69.405 38.9379C69.4066 38.9387 69.4066 38.9402 69.4066 38.9408L69.5773 39.9377L68.6832 39.4674C67.9283 39.0689 67.0265 39.0697 66.2658 39.4666L65.3685 39.9393L65.5408 38.9379C65.6832 38.0961 65.4029 37.2379 64.7933 36.6439L64.0654 35.934L65.0687 35.7881ZM38.0783 51.4672H30.5099C28.3037 51.4672 26.5078 53.2631 26.5078 55.4701V63.0379C26.5078 65.2449 28.3037 67.0408 30.5099 67.0408H38.0783C40.2845 67.0408 42.0804 65.2449 42.0804 63.0379V55.4701C42.0804 53.2629 40.2845 51.4672 38.0783 51.4672ZM39.0129 63.0377C39.0129 63.5537 38.5935 63.973 38.0783 63.973H30.5099C29.9947 63.973 29.5753 63.5537 29.5753 63.0377V55.4699C29.5753 54.9539 29.9947 54.5346 30.5099 54.5346H38.0783C38.5935 54.5346 39.0129 54.9539 39.0129 55.4699V63.0377Z" fill="#116FFF"/>
<path d="M35.0572 56.8795L33.5625 58.3742L33.5311 58.3428C32.9318 57.7436 31.9613 57.7436 31.3623 58.3428C30.7631 58.942 30.7631 59.9125 31.3623 60.5115L32.4781 61.6273C33.0771 62.2264 34.0479 62.2266 34.6469 61.6273L37.2262 59.048C37.8254 58.4488 37.8254 57.4783 37.2262 56.8793C36.627 56.2803 35.6562 56.2803 35.0572 56.8795ZM47.4486 55.6139C47.4486 56.4609 48.1346 57.1477 48.9824 57.1477H58.1506C58.9984 57.1477 59.6844 56.4609 59.6844 55.6139C59.6844 54.7668 58.9984 54.0801 58.1506 54.0801H48.9824C48.1346 54.0801 47.4486 54.7668 47.4486 55.6139ZM72.9578 61.3602H48.9824C48.1346 61.3602 47.4486 62.0469 47.4486 62.8939C47.4486 63.741 48.1346 64.4277 48.9824 64.4277H72.958C73.8059 64.4277 74.4918 63.741 74.4918 62.8939C74.4916 62.0469 73.8057 61.3602 72.9578 61.3602ZM38.0783 72.292H30.51C28.3037 72.292 26.5078 74.0879 26.5078 76.2949V83.8627C26.5078 86.0697 28.3037 87.8656 30.51 87.8656H38.0783C40.2846 87.8656 42.0805 86.0697 42.0805 83.8627V76.2949C42.0805 74.0879 40.2846 72.292 38.0783 72.292ZM39.0129 83.8625C39.0129 84.3785 38.5936 84.7978 38.0783 84.7978H30.51C29.9947 84.7978 29.5754 84.3785 29.5754 83.8625V76.2949C29.5754 75.7789 29.9947 75.3596 30.51 75.3596H38.0783C38.5936 75.3596 39.0129 75.7789 39.0129 76.2949V83.8625Z" fill="#116FFF"/>
<path d="M35.0584 77.7051L33.5637 79.1992L33.5322 79.1678C32.933 78.5686 31.9625 78.5693 31.3635 79.167C30.7643 79.7662 30.7643 80.7375 31.3635 81.3365L32.4793 82.4531C33.0785 83.0523 34.0494 83.052 34.648 82.4531L37.2273 79.8738C37.8266 79.2746 37.8266 78.3041 37.2273 77.7051C36.6281 77.1059 35.6574 77.1059 35.0584 77.7051ZM48.9836 77.9725H58.1518C58.9996 77.9725 59.6855 77.2857 59.6855 76.4387C59.6855 75.5916 58.9996 74.9049 58.1518 74.9049H48.9836C48.1357 74.9049 47.4498 75.5916 47.4498 76.4387C47.4498 77.2857 48.1357 77.9725 48.9836 77.9725ZM72.959 82.185H48.9836C48.1357 82.185 47.4498 82.8717 47.4498 83.7188C47.4498 84.5658 48.1357 85.2525 48.9836 85.2525H72.9592C73.807 85.2525 74.493 84.5658 74.493 83.7188C74.493 82.8717 73.8068 82.185 72.959 82.185Z" fill="#116FFF"/>
</svg>
