<svg width="39" height="28" viewBox="0 0 39 28" fill="none" xmlns="http://www.w3.org/2000/svg">
<rect x="0.5" width="38" height="28" rx="6" fill="#003FE0"/>
<path d="M10.3796 9.54545V19H8.38068V11.4428H8.32528L6.16016 12.8001V11.0273L8.50071 9.54545H10.3796ZM13.8597 17.9013C13.555 17.9013 13.2934 17.7936 13.0749 17.5781C12.8594 17.3627 12.7517 17.1011 12.7517 16.7933C12.7517 16.4917 12.8594 16.2332 13.0749 16.0178C13.2934 15.8023 13.555 15.6946 13.8597 15.6946C14.1551 15.6946 14.4136 15.8023 14.6352 16.0178C14.8568 16.2332 14.9676 16.4917 14.9676 16.7933C14.9676 16.9964 14.9153 17.1826 14.8107 17.3519C14.7091 17.5181 14.5752 17.652 14.409 17.7536C14.2428 17.852 14.0597 17.9013 13.8597 17.9013ZM13.8597 13.2617C13.555 13.2617 13.2934 13.154 13.0749 12.9386C12.8594 12.7231 12.7517 12.4615 12.7517 12.1538C12.7517 11.8522 12.8594 11.5952 13.0749 11.3828C13.2934 11.1674 13.555 11.0597 13.8597 11.0597C14.1551 11.0597 14.4136 11.1674 14.6352 11.3828C14.8568 11.5952 14.9676 11.8522 14.9676 12.1538C14.9676 12.36 14.9153 12.5477 14.8107 12.717C14.7091 12.8832 14.5752 13.0155 14.409 13.114C14.2428 13.2125 14.0597 13.2617 13.8597 13.2617ZM20.1234 19.1293C19.434 19.1293 18.82 19.0108 18.2815 18.7738C17.7459 18.5337 17.3228 18.2044 17.0119 17.7859C16.7042 17.3642 16.5457 16.878 16.5364 16.3271H18.5492C18.5615 16.5579 18.6369 16.761 18.7754 16.9364C18.917 17.1088 19.1047 17.2427 19.3386 17.3381C19.5725 17.4335 19.8357 17.4812 20.128 17.4812C20.4327 17.4812 20.702 17.4273 20.9359 17.3196C21.1698 17.2119 21.353 17.0626 21.4853 16.8718C21.6176 16.681 21.6838 16.4609 21.6838 16.2116C21.6838 15.9593 21.613 15.7362 21.4714 15.5423C21.3329 15.3453 21.1329 15.1914 20.8713 15.0806C20.6128 14.9698 20.305 14.9144 19.948 14.9144H19.0663V13.4464H19.948C20.2496 13.4464 20.5158 13.3941 20.7467 13.2894C20.9806 13.1848 21.1621 13.0401 21.2914 12.8555C21.4207 12.6677 21.4853 12.4492 21.4853 12.1999C21.4853 11.9629 21.4284 11.7552 21.3145 11.5767C21.2037 11.3951 21.0467 11.2536 20.8436 11.152C20.6436 11.0504 20.4097 10.9996 20.1419 10.9996C19.8711 10.9996 19.6233 11.0489 19.3986 11.1474C19.174 11.2428 18.9939 11.3797 18.8585 11.5582C18.7231 11.7367 18.6508 11.946 18.6415 12.1861H16.7257C16.7349 11.6413 16.8904 11.1612 17.192 10.7457C17.4936 10.3303 17.8998 10.0056 18.4107 9.77166C18.9247 9.53468 19.5048 9.41619 20.1511 9.41619C20.8036 9.41619 21.3745 9.53468 21.8638 9.77166C22.3532 10.0086 22.7333 10.3287 23.0041 10.7319C23.278 11.132 23.4134 11.5813 23.4104 12.0799C23.4134 12.6093 23.2488 13.0509 22.9164 13.4048C22.5871 13.7588 22.1578 13.9834 21.6284 14.0788V14.1527C22.324 14.242 22.8533 14.4835 23.2165 14.8775C23.5827 15.2683 23.7643 15.7577 23.7612 16.3455C23.7643 16.8841 23.6089 17.3627 23.295 17.7812C22.9841 18.1998 22.5548 18.5291 22.007 18.7692C21.4591 19.0092 20.8313 19.1293 20.1234 19.1293ZM28.8916 19.1293C28.4054 19.1262 27.936 19.0446 27.4836 18.8846C27.0343 18.7246 26.6311 18.4645 26.2741 18.1044C25.9171 17.7443 25.6339 17.2673 25.4247 16.6733C25.2185 16.0793 25.1154 15.3499 25.1154 14.4851C25.1184 13.6911 25.2092 12.9817 25.3877 12.3569C25.5693 11.729 25.8278 11.1966 26.1633 10.7596C26.5018 10.3226 26.9066 9.99017 27.3774 9.76243C27.8483 9.5316 28.3761 9.41619 28.9609 9.41619C29.5918 9.41619 30.1489 9.5393 30.6321 9.78551C31.1152 10.0286 31.503 10.3595 31.7954 10.7781C32.0909 11.1966 32.2694 11.666 32.3309 12.1861H30.3597C30.2827 11.8568 30.1212 11.5982 29.875 11.4105C29.6287 11.2228 29.3241 11.1289 28.9609 11.1289C28.3454 11.1289 27.8776 11.3967 27.5575 11.9322C27.2405 12.4677 27.0789 13.1955 27.0728 14.1158H27.1374C27.279 13.8357 27.4698 13.5972 27.7098 13.4002C27.953 13.2002 28.2284 13.0478 28.5362 12.9432C28.847 12.8355 29.1748 12.7816 29.5195 12.7816C30.0796 12.7816 30.5782 12.9139 31.0152 13.1786C31.4523 13.4402 31.7969 13.8003 32.0493 14.2589C32.3017 14.7174 32.4279 15.2422 32.4279 15.8331C32.4279 16.4732 32.2786 17.0426 31.9801 17.5412C31.6846 18.0398 31.2707 18.4306 30.7382 18.7138C30.2089 18.9938 29.5933 19.1323 28.8916 19.1293ZM28.8824 17.5597C29.1902 17.5597 29.4656 17.4858 29.7088 17.3381C29.9519 17.1903 30.1427 16.9903 30.2812 16.7379C30.4197 16.4856 30.4889 16.2024 30.4889 15.8885C30.4889 15.5746 30.4197 15.293 30.2812 15.0437C30.1458 14.7944 29.9581 14.5959 29.718 14.4482C29.4779 14.3004 29.204 14.2266 28.8963 14.2266C28.6654 14.2266 28.4515 14.2696 28.2546 14.3558C28.0607 14.442 27.8899 14.562 27.7421 14.7159C27.5975 14.8698 27.4836 15.0483 27.4005 15.2514C27.3174 15.4515 27.2759 15.6654 27.2759 15.8931C27.2759 16.1978 27.3451 16.4763 27.4836 16.7287C27.6252 16.9811 27.816 17.1826 28.0561 17.3335C28.2992 17.4843 28.5746 17.5597 28.8824 17.5597Z" fill="white"/>
</svg>
